/* XPM */
static char *_697103117567[] = {
/* columns rows colors chars-per-pixel */
"101 64 28 1 ",
"  c black",
". c #5B2536",
"X c #353C43",
"o c #3C2155",
"O c #752847",
"+ c #4C2372",
"@ c gray37",
"# c #862136",
"$ c #9F2436",
"% c #BE2633",
"& c #B14869",
"* c #CF7179",
"= c #3F4191",
"- c #6B7BBB",
"; c #A657A9",
": c #AE5FB1",
"> c #848484",
", c #9D9D9D",
"< c #B1B1B1",
"1 c #D48D96",
"2 c #EE9191",
"3 c #8190C5",
"4 c #B2DCEF",
"5 c gray77",
"6 c #D0D0D0",
"7 c #F9D7C5",
"8 c white",
"9 c None",
/* pixels */
"99999999999999999999999999999999999999999999999999999999999999999999999999999999999999999999999999999",
"99999999999999999999999999999999999999999999999999999999999999999999999999999999999999999999999999999",
"9999999999999999999999999999999999999999999999oooooooo99999999999999999999999999999999999999999999999",
"99999999999999999999999999999999999999999999oo========ooo99999999999999999999999999999999999999999999",
"999999999999999999999999999999999999999999oo===========%%%%999999999999999999999999999999999999999999",
"99999999999999999999999999999999999999999o===========%%%%%%%99999999999999999999999999999999999999999",
"99999999999999999999999999999999999999999o==========%%%%%%%%99999999999999999999999999999999999999999",
"9999999999999999999999999999999999999999o==========%%$======$9999999999999999999999999999999999999999",
"9999999999999999999999999999999999999999o==========$$====22=o9999999999999999999999999999999999999999",
"999999999999999999999999999999999999999o================227&=o999999999999999999999999999999999999999",
"999999999999999999999999999999999999999o===============22772=o999999999999999999999999999999999999999",
"999999999999999999999999999999999999999o==============227772&o999999999999999999999999999999999999999",
"99999999999999999999999999999999999999o==============2277722&o999999999999999999999999999999999999999",
"99999999999999999999999999999999999999o=============o277772ooo999999999999999999999999999999999999999",
"99999999999999999999999999999999999999o============oooo277oooo999999999999999999999999999999999999999",
"99999999999999999999999999999999999999o===========&&&&oo772&&o999999999999999999999999999999999999999",
"99999999999999999999999999999999999999o===o&&=====   .&777&. o999999999999999999999999999999999999999",
"999999999999999999999999999999999999oo===o&22==== 44  .777.  9999999999999999999999999999999999999999",
"9999999999999999999999999999999999oo====oo&72===&888  77778  9999999999999999999999999999999999999999",
"9999999999999999999999999999999999oo==oooo&777==&888  77778  9999999999999999999999999999999999999999",
"99999999999999999999999999999999999o==oooo&7772=2788 7777728 9999999999999999999999999999999999999999",
"99999999999999999999999999999999999++=ooooo&&22&277777777772&9999999999999999999999999999999999999999",
"9999999999999999999999999999999999++++oooooooo&&&27777777772&9999999999999999999999999999999999999999",
"99999999999999999999999999999999999++++oooooo@@&&2777772172&99999999999999999999999999999999999999999",
"999999999999999999999999999999999999++++oo++@@@&&&277777722&99999999999999999999999999999999999999999",
"999999999999999999999999999999999999o+++++++@,,@&&&&2722&&&999999999999999999999999999999999999999999",
"99999999999999999999999999999999999999o+++33@,,<@@&&&&&@@99999999999999999999999999999999999999999999",
"9999999999999999999999999999999999999999++3@@@,,<@@&&@@,,@9999999999999999999999999999999999999999999",
"999999999999999999999999999999999999999++3@@,,@@<6@&&@,:@;@999999999999999999999999999999999999999999",
"99999999999999999999999999999999999999+++3@:,,,@@6@2&@,:@,;@99999999999999999999999999999999999999999",
"99999999999999999999999999999999999999++3@:>>>,,,@@22@,@@<;@99999999999999999999999999999999999999999",
"99999999999999999999999999999999999999++3@:>>>,,,,@@@@&&&&<:@9999999999999999999999999999999999999999",
"99999999999999999999999999999999999999993@:>>>>,,@55&&&22&&@@9999999999999999999999999999999999999999",
"999999999999999999999999999999999999999&3@::>>>,@3,&&&&&22&@99999999999999999999999999999999999999999",
"99999999999999999999999999999999999999&&3@::>>@@3&&&222&22&&99999999999999999999999999999999999999999",
"99999999999999999999999999999999999999&&33@:>@@3&&&2222222&&99999999999999999999999999999999999999999",
"99999999999999999999999999999999999999&&33+@@333&&22222222&&99999999999999999999999999999999999999999",
"99999999999999999999999999999999999999&&33++33&&22222222&&@999999999999999999999999999999999999999999",
"999999999999999999999999999999999999999&33++&&&222222&&&&@@999999999999999999999999999999999999999999",
"999999999999999999999999999999999999999933++&&2222&&&OO@@@@999999999999999999999999999999999999999999",
"999999999999999999999999999999999999999933+@@&&&&&@@@@@@@@9999999999999999999999999999999999999999999",
"999999999999999999999999999999999999999933@;@XXX---------@-999999999999999999999999999999999999999999",
"99999999999999999999999999999999999999999@3<@-XX;,,5556666--99999999999999999999999999999999999999999",
"9999999999999999999999999999999999999999@;;<@-@X;;,,,,<<,5-$&9999999999999999999999999999999999999999",
"999999999999999999999999999999999999999@;;<<@##$@;;,,<<,,5@$#9999999999999999999999999999999999999999",
"999999999999999999999999999999999999999@;,@@###$$@@;,,,,,5@$#9999999999999999999999999999999999999999",
"999999999999999999999999999999999999999@@@####$$$##@@@@@@@@##9999999999999999999999999999999999999999",
"9999999999999999999999999999999999999999#####$$$#######$$22229999999999999999999999999999999999999999",
"999999999999999999999999999999999999999999###222222###$$22*OOO999999999999999999999999999999999999999",
"99999999999999999999999999999999999999OOOO999$$$$$22#$22*OOOOOO99999999999999999999999999999999999999",
"9999999999999999999999999999999999999O$$$OO9$$$$$$$$99*OOOOOO@@@9999999999999999999999999999999999999",
"9999999999999999999999999999999999999O$$$$OO$$$$$$$$999OOO---@@@@999999999999999999999999999999999999",
"999999999999999999999999999999999999O$$$$$$O$$$$$$$99999O-----@@@999999999999999999999999999999999999",
"999999999999999999999999999999999999O$$@@$$$$$$$$$$9999999--OOOOO999999999999999999999999999999999999",
"999999999999999999999999999999999999O$$@@@$$-$$$$$99999999OOOOOOO999999999999999999999999999999999999",
"999999999999999999999999999999999999O$$-@@$$-$$$$9999999999OOOOOO999999999999999999999999999999999999",
"999999999999999999999999999999999999O$--9$$@@$$$$9999999999OOOOO9999999999999999999999999999999999999",
"999999999999999999999999999999999999O$-$99@@@@$$9999999999OOOOOO9999999999999999999999999999999999999",
"9999999999999999999999999999999999999OO9999@@@$99999999999OOOOOO9999999999999999999999999999999999999",
"9999999999999999999999999999999999999999999999999999999999OOO@@99999999999999999999999999999999999999",
"999999999999999999999999999999999999999999999999999999999OOOO@@99999999999999999999999999999999999999",
"999999999999999999999999999999999999999999999999999999999OOOOO--9999999999999999999999999999999999999",
"999999999999999999999999999999999999999999999999999999999OOOOOO--O99999999999999999999999999999999999",
"9999999999999999999999999999999999999999999999999999999999OOOOOOOO99999999999999999999999999999999999"
};
